<?xml version="1.0" standalone="no"?>
<!DOCTYPE svg PUBLIC "-//W3C//DTD SVG 20010904//EN"
 "http://www.w3.org/TR/2001/REC-SVG-20010904/DTD/svg10.dtd">
<svg version="1.0" xmlns="http://www.w3.org/2000/svg"
 width="170.000000pt" height="95.000000pt" viewBox="0 0 170.000000 95.000000"
 preserveAspectRatio="xMidYMid meet">

<g transform="translate(0.000000,95.000000) scale(0.100000,-0.100000)"
fill="#000000" stroke="none">
<path d="M1382 909 c-131 -20 -275 -94 -325 -167 -52 -76 -44 -164 19 -203 26
-16 64 -24 152 -33 64 -6 113 -14 107 -17 -5 -4 -46 -16 -90 -28 -147 -41
-278 -128 -319 -215 -9 -19 -16 -55 -16 -81 0 -40 5 -52 33 -80 61 -61 163
-71 322 -30 171 43 274 119 290 214 10 63 0 65 -68 17 -123 -87 -228 -126
-339 -126 -141 0 -168 51 -72 139 69 63 172 114 289 142 49 11 102 27 117 35
27 14 47 58 34 71 -10 10 -130 22 -231 23 -100 0 -163 14 -172 36 -13 35 106
112 226 148 60 18 181 22 181 6 0 -5 -11 -17 -24 -25 -13 -9 -27 -23 -30 -31
-6 -17 101 35 153 73 31 24 33 29 28 70 -2 25 -10 50 -16 56 -14 14 -169 18
-249 6z"/>
<path d="M495 879 c-143 -24 -384 -118 -429 -168 -22 -24 -45 -106 -38 -134 8
-33 30 -30 122 14 85 40 109 59 75 59 -33 0 -12 19 53 47 99 45 248 93 287 93
31 0 65 -21 65 -39 0 -23 -143 -202 -222 -278 -44 -43 -126 -73 -196 -73 -52
0 -95 -79 -59 -108 6 -5 27 -13 45 -17 17 -3 32 -9 32 -11 0 -2 -11 -21 -25
-42 -37 -56 -50 -99 -35 -117 19 -23 40 -5 109 89 34 47 70 90 79 95 20 11
182 34 189 28 2 -3 -7 -32 -21 -65 -14 -33 -27 -80 -28 -104 -3 -42 -2 -43 26
-41 52 4 76 28 76 77 0 25 9 65 20 90 l19 46 63 0 63 0 47 66 c26 37 46 70 43
74 -2 4 -27 10 -55 14 -27 4 -50 10 -50 14 0 4 38 65 84 135 84 127 107 180
88 199 -10 10 -65 -58 -192 -237 -35 -49 -66 -93 -69 -97 -7 -8 -152 -31 -158
-24 -2 2 28 41 67 87 114 134 152 214 135 288 -10 48 -82 62 -210 40z"/>
</g>
</svg>
